<svg id="e7c70e70-ae2e-41db-94f4-25b0f83094b2" data-name="Calque 1" xmlns="http://www.w3.org/2000/svg" viewBox="0 0 404.14 248.15"><defs><style>.\34 5dd3dac-50cb-48b8-8ce5-84c2b9e63993{fill:#999;}.\35 1699875-849c-4f54-9ba4-7d124a7ddf81{fill:#fff;stroke-width:1.5px;}.\34 3299cba-90a6-4345-bcd4-463fa51563fb,.\35 1699875-849c-4f54-9ba4-7d124a7ddf81{stroke:#555;}.\34 3299cba-90a6-4345-bcd4-463fa51563fb{fill:none;}.\37 ef4a137-d0f0-4e4f-bd9f-2f700200e33f{isolation:isolate;}.\39 f9fa32d-a4ad-4adc-99c1-65c07ad4a1cb{fill:#555;}</style></defs><title>logo</title><g id="7a075da0-8edd-453c-aa40-659cf932b3f4" data-name="path3797"><path class="45dd3dac-50cb-48b8-8ce5-84c2b9e63993" d="M330.67,141.64a103.73,103.73,0,0,1-8.32,40.79,107.69,107.69,0,0,1-23.63,34.47,111.43,111.43,0,0,1-35,23.31,114.85,114.85,0,0,1-83.83,2,112.48,112.48,0,0,1-37-22.46,107.66,107.66,0,0,1-25.56-35.32,105.65,105.65,0,0,1-6.83-20.93,107.75,107.75,0,0,1-2.31-21.91A105.28,105.28,0,0,1,117.3,98.8a107.52,107.52,0,0,1,25.56-35.33,112.25,112.25,0,0,1,37-22.47,114.81,114.81,0,0,1,83.85,2,111.35,111.35,0,0,1,35,23.32,107.7,107.7,0,0,1,23.62,34.48A103.75,103.75,0,0,1,330.67,141.64Zm0,0a102.25,102.25,0,0,0-2.2-20.78A99.66,99.66,0,0,0,322,101a102.1,102.1,0,0,0-24.31-33.54,106.91,106.91,0,0,0-35.21-21.33,109.35,109.35,0,0,0-79.8,2,106,106,0,0,0-33.26,22.19A102.27,102.27,0,0,0,127,103.05a98.63,98.63,0,0,0,0,77.17,102.11,102.11,0,0,0,22.37,32.7c19,18.85,45.5,30.07,72.78,30.76a109.25,109.25,0,0,0,40.31-6.52,106.83,106.83,0,0,0,35.21-21.34A102.1,102.1,0,0,0,322,182.27a99.59,99.59,0,0,0,6.48-19.85A102.25,102.25,0,0,0,330.67,141.64Z" transform="translate(-12.54 -17.77)"/></g><path id="f8770ce3-6cb7-43ce-a5e4-9e3de9017adb" data-name="path2130" class="51699875-849c-4f54-9ba4-7d124a7ddf81" d="M215.72,36.77a4.71,4.71,0,1,1,0,.09" transform="translate(-12.54 -17.77)"/><path id="20716d37-aefb-47f8-a163-79ca9f02257e" data-name="path2134" class="51699875-849c-4f54-9ba4-7d124a7ddf81" d="M215.72,246.32a4.71,4.71,0,1,1,0,.09" transform="translate(-12.54 -17.77)"/><g id="fce36906-1e53-4a68-999a-d8f48b68a18e" data-name="g3427"><g id="e9a1e487-8113-4761-83d9-8f8f33a1943c" data-name="g3387"><path id="ccf1b377-6cbb-4bc3-84ba-ddcbebe78596" data-name="path3377" class="43299cba-90a6-4345-bcd4-463fa51563fb" d="M240.08,253.11l3.3,6.29-3.3,6.29" transform="translate(-12.54 -17.77)"/><path id="10c377a6-0700-4aa7-aacb-90e1132d11d2" data-name="path3385" class="43299cba-90a6-4345-bcd4-463fa51563fb" d="M226.88,253.11v12.57" transform="translate(-12.54 -17.77)"/></g><g id="ec5b5e1d-1531-432f-8488-ab72f1d26a48" data-name="text3399" class="7ef4a137-d0f0-4e4f-bd9f-2f700200e33f"><g class="7ef4a137-d0f0-4e4f-bd9f-2f700200e33f"><path class="9f9fa32d-a4ad-4adc-99c1-65c07ad4a1cb" d="M231.4,256v-1.83h3.35v9.76h-2V256Z" transform="translate(-12.54 -17.77)"/></g></g></g><g id="39a61230-e1da-4864-821a-47e142a5175c" data-name="g3441"><g id="69bb5a39-cbab-48d4-822d-94947b9bfe35" data-name="g3403"><path id="a01e8115-f5a9-499c-b113-af1c5d8234af" data-name="path3405" class="43299cba-90a6-4345-bcd4-463fa51563fb" d="M211.87,18l3.3,6.29-3.3,6.29" transform="translate(-12.54 -17.77)"/><path id="230b09f7-d31b-4899-88e2-f18f26a46ee9" data-name="path3407" class="43299cba-90a6-4345-bcd4-463fa51563fb" d="M198.67,18V30.57" transform="translate(-12.54 -17.77)"/></g><g id="75e2032f-6bd0-4457-9ad3-2552812b2fe5" data-name="text3409" class="7ef4a137-d0f0-4e4f-bd9f-2f700200e33f"><g class="7ef4a137-d0f0-4e4f-bd9f-2f700200e33f"><path class="9f9fa32d-a4ad-4adc-99c1-65c07ad4a1cb" d="M202.16,24q0-5,3.56-5a3,3,0,0,1,2.72,1.33,6.79,6.79,0,0,1,.83,3.62,6.82,6.82,0,0,1-.83,3.64A3,3,0,0,1,205.72,29Q202.16,29,202.16,24Zm5.28,0a6,6,0,0,0-.35-2.3,1.57,1.57,0,0,0-2.75,0A6,6,0,0,0,204,24a6,6,0,0,0,.35,2.32,1.57,1.57,0,0,0,2.75,0A6,6,0,0,0,207.44,24Z" transform="translate(-12.54 -17.77)"/></g></g></g><path class="9f9fa32d-a4ad-4adc-99c1-65c07ad4a1cb" d="M33.38,135.26V131h8.45v42.85H33.38V155.38a9.06,9.06,0,0,1-8.25,5,11.44,11.44,0,0,1-6.34-1.85,13,13,0,0,1-4.55-5.17,16.64,16.64,0,0,1-1.69-7.64A17.13,17.13,0,0,1,14.23,138a13.21,13.21,0,0,1,4.58-5.3,11.26,11.26,0,0,1,6.32-1.9A9,9,0,0,1,33.38,135.26ZM23,140.38a7.35,7.35,0,0,0-1.79,5.33A7,7,0,0,0,23,150.88a5.89,5.89,0,0,0,4.3,1.74,5.83,5.83,0,0,0,4.3-1.85,7.14,7.14,0,0,0,1.81-5.23,7,7,0,0,0-1.81-5.2,5.87,5.87,0,0,0-4.3-1.82A5.75,5.75,0,0,0,23,140.38Z" transform="translate(-12.54 -17.77)"/><path class="9f9fa32d-a4ad-4adc-99c1-65c07ad4a1cb" d="M75.3,131v29H66.74v-5.25a9.5,9.5,0,0,1-3.56,4.06,10,10,0,0,1-5.49,1.51A9.41,9.41,0,0,1,50.11,157q-2.81-3.33-2.81-9.15V131h8.45V146.8a6.66,6.66,0,0,0,1.47,4.6,5,5,0,0,0,4,1.64,5.12,5.12,0,0,0,4.08-1.72,7.23,7.23,0,0,0,1.49-4.89V131Z" transform="translate(-12.54 -17.77)"/><path class="9f9fa32d-a4ad-4adc-99c1-65c07ad4a1cb" d="M97.18,132.19a9,9,0,0,1,3.38,4.11V131H109v29h-8.45v-5.25a9,9,0,0,1-3.38,4.11,9.71,9.71,0,0,1-5.47,1.51,10.87,10.87,0,0,1-6.14-1.79,12.12,12.12,0,0,1-4.28-5.17,20.79,20.79,0,0,1,0-15.83,12.15,12.15,0,0,1,4.28-5.15,10.87,10.87,0,0,1,6.14-1.79A9.72,9.72,0,0,1,97.18,132.19ZM90,140.35a8.95,8.95,0,0,0,0,10.4,6.05,6.05,0,0,0,8.8-.05,8.62,8.62,0,0,0,0-10.32,5.67,5.67,0,0,0-4.4-1.9A5.6,5.6,0,0,0,90,140.35Z" transform="translate(-12.54 -17.77)"/><path class="9f9fa32d-a4ad-4adc-99c1-65c07ad4a1cb" d="M140.07,134.06q2.81,3.33,2.81,9.15v16.85h-8.5V144.25a6.58,6.58,0,0,0-1.47-4.55,5,5,0,0,0-3.9-1.64,5.2,5.2,0,0,0-4.1,1.72,7.14,7.14,0,0,0-1.52,4.89v15.39h-8.5V131h8.5v5.3a9.44,9.44,0,0,1,3.56-4.11,10.08,10.08,0,0,1,5.54-1.51A9.41,9.41,0,0,1,140.07,134.06Z" transform="translate(-12.54 -17.77)"/><path class="9f9fa32d-a4ad-4adc-99c1-65c07ad4a1cb" d="M164.21,152.42v7.64h-3.83q-4.87,0-7.58-2.52t-2.71-8.35V138.53h-3.73V131h3.73v-7.12h8.5V131h5.57v7.49h-5.57v10.82a3.36,3.36,0,0,0,.67,2.39,3.11,3.11,0,0,0,2.26.68Z" transform="translate(-12.54 -17.77)"/><path class="9f9fa32d-a4ad-4adc-99c1-65c07ad4a1cb" d="M196.58,131v29H188v-5.25a9.5,9.5,0,0,1-3.56,4.06,10,10,0,0,1-5.49,1.51A9.41,9.41,0,0,1,171.4,157q-2.81-3.33-2.81-9.15V131H177V146.8a6.66,6.66,0,0,0,1.47,4.6,5,5,0,0,0,4,1.64,5.12,5.12,0,0,0,4.08-1.72,7.23,7.23,0,0,0,1.49-4.89V131Z" transform="translate(-12.54 -17.77)"/><path class="9f9fa32d-a4ad-4adc-99c1-65c07ad4a1cb" d="M246.46,134q2.93,3.3,2.93,9.18v16.85h-8.45V144.25a6.09,6.09,0,0,0-1.42-4.29,5,5,0,0,0-3.85-1.53,5.1,5.1,0,0,0-4,1.64,6.66,6.66,0,0,0-1.47,4.6v15.39h-8.5V144.25A6.16,6.16,0,0,0,220.3,140a4.91,4.91,0,0,0-3.83-1.53,5.22,5.22,0,0,0-4,1.61,6.57,6.57,0,0,0-1.49,4.63v15.39h-8.5V131H211V136a8.52,8.52,0,0,1,3.36-3.85,9.84,9.84,0,0,1,5.3-1.4,10.33,10.33,0,0,1,5.62,1.53,9.52,9.52,0,0,1,3.68,4.39,11.41,11.41,0,0,1,4-4.32,10.06,10.06,0,0,1,5.54-1.61A10.23,10.23,0,0,1,246.46,134Z" transform="translate(-12.54 -17.77)"/><path class="9f9fa32d-a4ad-4adc-99c1-65c07ad4a1cb" d="M274.36,138.12v7.38H252.43v-7.38Z" transform="translate(-12.54 -17.77)"/><path class="9f9fa32d-a4ad-4adc-99c1-65c07ad4a1cb" d="M294.67,132.29a10.13,10.13,0,0,1,5.45-1.56v9.52h-2.44a8.14,8.14,0,0,0-5.25,1.51q-1.86,1.51-1.87,5.1v13.21h-8.5V131h8.5v5.46A12.34,12.34,0,0,1,294.67,132.29Z" transform="translate(-12.54 -17.77)"/><path class="9f9fa32d-a4ad-4adc-99c1-65c07ad4a1cb" d="M324.06,132.47a12.85,12.85,0,0,1,5.12,5.17,17.68,17.68,0,0,1,0,15.81,12.85,12.85,0,0,1-5.12,5.17,16.15,16.15,0,0,1-14.79,0,12.8,12.8,0,0,1-5.15-5.17,17.69,17.69,0,0,1,0-15.81,12.81,12.81,0,0,1,5.15-5.17,16.15,16.15,0,0,1,14.79,0Zm-11.49,7.75a7.69,7.69,0,0,0-1.67,5.33,7.59,7.59,0,0,0,1.67,5.3,5.34,5.34,0,0,0,4.1,1.82,5.27,5.27,0,0,0,4.08-1.82,7.67,7.67,0,0,0,1.64-5.3,7.78,7.78,0,0,0-1.64-5.33,5.24,5.24,0,0,0-4.08-1.85A5.31,5.31,0,0,0,312.58,140.22Z" transform="translate(-12.54 -17.77)"/><path class="9f9fa32d-a4ad-4adc-99c1-65c07ad4a1cb" d="M358.92,132.47a12.16,12.16,0,0,1,4.28,5.15,20.79,20.79,0,0,1,0,15.83,12.13,12.13,0,0,1-4.28,5.17,10.87,10.87,0,0,1-6.14,1.79,9.7,9.7,0,0,1-5.47-1.51,8.66,8.66,0,0,1-3.33-4.11v5.25h-8.5V121.58H344V136.3a8.67,8.67,0,0,1,3.33-4.11,9.71,9.71,0,0,1,5.47-1.51A10.87,10.87,0,0,1,358.92,132.47Zm-13.28,7.9a8.62,8.62,0,0,0,0,10.32,6.05,6.05,0,0,0,8.8.05,8.95,8.95,0,0,0,0-10.4,5.61,5.61,0,0,0-4.4-1.87A5.67,5.67,0,0,0,345.65,140.38Z" transform="translate(-12.54 -17.77)"/><path class="9f9fa32d-a4ad-4adc-99c1-65c07ad4a1cb" d="M389.56,132.47a12.85,12.85,0,0,1,5.12,5.17,17.68,17.68,0,0,1,0,15.81,12.85,12.85,0,0,1-5.12,5.17,16.15,16.15,0,0,1-14.79,0,12.8,12.8,0,0,1-5.15-5.17,17.69,17.69,0,0,1,0-15.81,12.81,12.81,0,0,1,5.15-5.17,16.15,16.15,0,0,1,14.79,0Zm-11.49,7.75a7.69,7.69,0,0,0-1.67,5.33,7.59,7.59,0,0,0,1.67,5.3,5.34,5.34,0,0,0,4.1,1.82,5.27,5.27,0,0,0,4.08-1.82,7.67,7.67,0,0,0,1.64-5.3,7.78,7.78,0,0,0-1.64-5.33,5.24,5.24,0,0,0-4.08-1.85A5.31,5.31,0,0,0,378.07,140.22Z" transform="translate(-12.54 -17.77)"/><path class="9f9fa32d-a4ad-4adc-99c1-65c07ad4a1cb" d="M416.68,152.42v7.64h-3.83q-4.87,0-7.58-2.52t-2.71-8.35V138.53h-3.73V131h3.73v-7.12h8.5V131h5.57v7.49h-5.57v10.82a3.36,3.36,0,0,0,.67,2.39,3.11,3.11,0,0,0,2.26.68Z" transform="translate(-12.54 -17.77)"/></svg>